<mxfile host="app.diagrams.net" modified="2023-04-08T02:42:04.420Z" agent="Mozilla/5.0 (X11; Linux x86_64) AppleWebKit/537.36 (KHTML, like Gecko) Chrome/111.0.0.0 Safari/537.36" etag="K-AqvIIyCJ55-G9mbTqs" version="21.1.5" type="github">
  <diagram id="C5RBs43oDa-KdzZeNtuy" name="Page-1">
    <mxGraphModel dx="6372" dy="2046" grid="1" gridSize="10" guides="1" tooltips="1" connect="1" arrows="1" fold="1" page="1" pageScale="1" pageWidth="827" pageHeight="1169" math="0" shadow="0">
      <root>
        <mxCell id="WIyWlLk6GJQsqaUBKTNV-0" />
        <mxCell id="WIyWlLk6GJQsqaUBKTNV-1" parent="WIyWlLk6GJQsqaUBKTNV-0" />
        <mxCell id="zLF4Rb-D75C30-sHsNMi-0" value="&lt;div style=&quot;color: rgb(59, 59, 59); background-color: rgb(255, 255, 255); font-family: &amp;quot;Droid Sans Mono&amp;quot;, &amp;quot;monospace&amp;quot;, monospace; font-size: 14px; line-height: 19px;&quot;&gt;&lt;div style=&quot;line-height: 19px;&quot;&gt;void &lt;span style=&quot;color: #267f99;&quot;&gt;VelocitySmoothing&lt;/span&gt;::&lt;span style=&quot;color: #795e26;&quot;&gt;updateTraj&lt;/span&gt;(&lt;span style=&quot;color: #0000ff;&quot;&gt;float&lt;/span&gt; &lt;span style=&quot;color: #001080;&quot;&gt;dt&lt;/span&gt;, &lt;span style=&quot;color: #0000ff;&quot;&gt;float&lt;/span&gt; &lt;span style=&quot;color: #001080;&quot;&gt;time_stretch&lt;/span&gt;)&lt;/div&gt;&lt;/div&gt;" style="rounded=0;whiteSpace=wrap;html=1;" vertex="1" parent="WIyWlLk6GJQsqaUBKTNV-1">
          <mxGeometry x="-450" y="600" width="610" height="60" as="geometry" />
        </mxCell>
        <mxCell id="zLF4Rb-D75C30-sHsNMi-8" value="" style="edgeStyle=orthogonalEdgeStyle;rounded=0;orthogonalLoop=1;jettySize=auto;html=1;" edge="1" parent="WIyWlLk6GJQsqaUBKTNV-1" source="zLF4Rb-D75C30-sHsNMi-1" target="zLF4Rb-D75C30-sHsNMi-0">
          <mxGeometry relative="1" as="geometry" />
        </mxCell>
        <mxCell id="zLF4Rb-D75C30-sHsNMi-1" value="&lt;div style=&quot;color: rgb(59, 59, 59); background-color: rgb(255, 255, 255); font-family: &amp;quot;Droid Sans Mono&amp;quot;, &amp;quot;monospace&amp;quot;, monospace; font-size: 14px; line-height: 19px;&quot;&gt;&lt;div style=&quot;line-height: 19px;&quot;&gt;Trajectory &lt;span style=&quot;color: #267f99;&quot;&gt;VelocitySmoothing&lt;/span&gt;::&lt;span style=&quot;color: #795e26;&quot;&gt;evaluatePoly&lt;/span&gt;(&lt;span style=&quot;color: #0000ff;&quot;&gt;float&lt;/span&gt; &lt;span style=&quot;color: #001080;&quot;&gt;j&lt;/span&gt;, &lt;span style=&quot;color: #0000ff;&quot;&gt;float&lt;/span&gt; &lt;span style=&quot;color: #001080;&quot;&gt;a0&lt;/span&gt;, &lt;span style=&quot;color: #0000ff;&quot;&gt;float&lt;/span&gt; &lt;span style=&quot;color: #001080;&quot;&gt;v0&lt;/span&gt;, &lt;span style=&quot;color: #0000ff;&quot;&gt;float&lt;/span&gt; &lt;span style=&quot;color: #001080;&quot;&gt;x0&lt;/span&gt;, &lt;span style=&quot;color: #0000ff;&quot;&gt;float&lt;/span&gt; &lt;span style=&quot;color: #001080;&quot;&gt;t&lt;/span&gt;, &lt;span style=&quot;color: #0000ff;&quot;&gt;int&lt;/span&gt; &lt;span style=&quot;color: #001080;&quot;&gt;d&lt;/span&gt;)&lt;/div&gt;&lt;/div&gt;" style="rounded=0;whiteSpace=wrap;html=1;" vertex="1" parent="WIyWlLk6GJQsqaUBKTNV-1">
          <mxGeometry x="-605" y="490" width="920" height="60" as="geometry" />
        </mxCell>
        <mxCell id="zLF4Rb-D75C30-sHsNMi-2" value="&lt;div style=&quot;color: rgb(59, 59, 59); background-color: rgb(255, 255, 255); font-family: &amp;quot;Droid Sans Mono&amp;quot;, &amp;quot;monospace&amp;quot;, monospace; font-size: 14px; line-height: 19px;&quot;&gt;void &lt;span style=&quot;color: #267f99;&quot;&gt;VelocitySmoothing&lt;/span&gt;::&lt;span style=&quot;color: #795e26;&quot;&gt;timeSynchronization&lt;/span&gt;(&lt;span style=&quot;color: #267f99;&quot;&gt;VelocitySmoothing&lt;/span&gt; &lt;span style=&quot;color: #0000ff;&quot;&gt;*&lt;/span&gt;&lt;span style=&quot;color: #001080;&quot;&gt;traj&lt;/span&gt;, &lt;span style=&quot;color: #0000ff;&quot;&gt;int&lt;/span&gt; &lt;span style=&quot;color: #001080;&quot;&gt;n_traj&lt;/span&gt;)&lt;/div&gt;" style="rounded=0;whiteSpace=wrap;html=1;" vertex="1" parent="WIyWlLk6GJQsqaUBKTNV-1">
          <mxGeometry x="505" y="600" width="750" height="60" as="geometry" />
        </mxCell>
        <mxCell id="zLF4Rb-D75C30-sHsNMi-5" value="" style="edgeStyle=orthogonalEdgeStyle;rounded=0;orthogonalLoop=1;jettySize=auto;html=1;" edge="1" parent="WIyWlLk6GJQsqaUBKTNV-1" source="zLF4Rb-D75C30-sHsNMi-4" target="zLF4Rb-D75C30-sHsNMi-2">
          <mxGeometry relative="1" as="geometry" />
        </mxCell>
        <mxCell id="zLF4Rb-D75C30-sHsNMi-4" value="&lt;div style=&quot;color: rgb(59, 59, 59); background-color: rgb(255, 255, 255); font-family: &amp;quot;Droid Sans Mono&amp;quot;, &amp;quot;monospace&amp;quot;, monospace; font-size: 14px; line-height: 19px;&quot;&gt;float &lt;span style=&quot;color: #795e26;&quot;&gt;getTotalTime&lt;/span&gt;() &lt;span style=&quot;color: #0000ff;&quot;&gt;const&lt;/span&gt; { &lt;span style=&quot;color: #af00db;&quot;&gt;return&lt;/span&gt; &lt;span style=&quot;color: #001080;&quot;&gt;_T1&lt;/span&gt; &lt;span style=&quot;color: #000000;&quot;&gt;+&lt;/span&gt; &lt;span style=&quot;color: #001080;&quot;&gt;_T2&lt;/span&gt; &lt;span style=&quot;color: #000000;&quot;&gt;+&lt;/span&gt; &lt;span style=&quot;color: #001080;&quot;&gt;_T3&lt;/span&gt;; }&lt;/div&gt;void&lt;span style=&quot;border-color: var(--border-color); --tw-border-spacing-x:0; --tw-border-spacing-y:0; --tw-translate-x:0; --tw-translate-y:0; --tw-rotate:0; --tw-skew-x:0; --tw-skew-y:0; --tw-scale-x:1; --tw-scale-y:1; --tw-scroll-snap-strictness:proximity; --tw-ring-offset-width:0px; --tw-ring-offset-color:#fff; --tw-ring-color:rgba(59,130,246,0.5); --tw-ring-offset-shadow:0 0 transparent; --tw-ring-shadow:0 0 transparent; --tw-shadow:0 0 transparent; --tw-shadow-colored:0 0 transparent; color: rgb(59, 59, 59); font-family: &amp;quot;Droid Sans Mono&amp;quot;, &amp;quot;monospace&amp;quot;, monospace; font-size: 14px; text-align: left; background-color: rgb(255, 255, 255);&quot;&gt;&amp;nbsp;&lt;/span&gt;&lt;span style=&quot;border-color: var(--border-color); --tw-border-spacing-x:0; --tw-border-spacing-y:0; --tw-translate-x:0; --tw-translate-y:0; --tw-rotate:0; --tw-skew-x:0; --tw-skew-y:0; --tw-scale-x:1; --tw-scale-y:1; --tw-scroll-snap-strictness:proximity; --tw-ring-offset-width:0px; --tw-ring-offset-color:#fff; --tw-ring-color:rgba(59,130,246,0.5); --tw-ring-offset-shadow:0 0 transparent; --tw-ring-shadow:0 0 transparent; --tw-shadow:0 0 transparent; --tw-shadow-colored:0 0 transparent; font-family: &amp;quot;Droid Sans Mono&amp;quot;, &amp;quot;monospace&amp;quot;, monospace; font-size: 14px; text-align: left; background-color: rgb(255, 255, 255); color: rgb(38, 127, 153);&quot;&gt;VelocitySmoothing&lt;/span&gt;&lt;span style=&quot;border-color: var(--border-color); --tw-border-spacing-x:0; --tw-border-spacing-y:0; --tw-translate-x:0; --tw-translate-y:0; --tw-rotate:0; --tw-skew-x:0; --tw-skew-y:0; --tw-scale-x:1; --tw-scale-y:1; --tw-scroll-snap-strictness:proximity; --tw-ring-offset-width:0px; --tw-ring-offset-color:#fff; --tw-ring-color:rgba(59,130,246,0.5); --tw-ring-offset-shadow:0 0 transparent; --tw-ring-shadow:0 0 transparent; --tw-shadow:0 0 transparent; --tw-shadow-colored:0 0 transparent; color: rgb(59, 59, 59); font-family: &amp;quot;Droid Sans Mono&amp;quot;, &amp;quot;monospace&amp;quot;, monospace; font-size: 14px; text-align: left; background-color: rgb(255, 255, 255);&quot;&gt;::&lt;/span&gt;&lt;span style=&quot;border-color: var(--border-color); --tw-border-spacing-x:0; --tw-border-spacing-y:0; --tw-translate-x:0; --tw-translate-y:0; --tw-rotate:0; --tw-skew-x:0; --tw-skew-y:0; --tw-scale-x:1; --tw-scale-y:1; --tw-scroll-snap-strictness:proximity; --tw-ring-offset-width:0px; --tw-ring-offset-color:#fff; --tw-ring-color:rgba(59,130,246,0.5); --tw-ring-offset-shadow:0 0 transparent; --tw-ring-shadow:0 0 transparent; --tw-shadow:0 0 transparent; --tw-shadow-colored:0 0 transparent; font-family: &amp;quot;Droid Sans Mono&amp;quot;, &amp;quot;monospace&amp;quot;, monospace; font-size: 14px; text-align: left; background-color: rgb(255, 255, 255); color: rgb(121, 94, 38);&quot;&gt;updateDurationsGivenTotalTime&lt;/span&gt;&lt;span style=&quot;border-color: var(--border-color); --tw-border-spacing-x:0; --tw-border-spacing-y:0; --tw-translate-x:0; --tw-translate-y:0; --tw-rotate:0; --tw-skew-x:0; --tw-skew-y:0; --tw-scale-x:1; --tw-scale-y:1; --tw-scroll-snap-strictness:proximity; --tw-ring-offset-width:0px; --tw-ring-offset-color:#fff; --tw-ring-color:rgba(59,130,246,0.5); --tw-ring-offset-shadow:0 0 transparent; --tw-ring-shadow:0 0 transparent; --tw-shadow:0 0 transparent; --tw-shadow-colored:0 0 transparent; color: rgb(59, 59, 59); font-family: &amp;quot;Droid Sans Mono&amp;quot;, &amp;quot;monospace&amp;quot;, monospace; font-size: 14px; text-align: left; background-color: rgb(255, 255, 255);&quot;&gt;(&lt;/span&gt;&lt;span style=&quot;border-color: var(--border-color); --tw-border-spacing-x:0; --tw-border-spacing-y:0; --tw-translate-x:0; --tw-translate-y:0; --tw-rotate:0; --tw-skew-x:0; --tw-skew-y:0; --tw-scale-x:1; --tw-scale-y:1; --tw-scroll-snap-strictness:proximity; --tw-ring-offset-width:0px; --tw-ring-offset-color:#fff; --tw-ring-color:rgba(59,130,246,0.5); --tw-ring-offset-shadow:0 0 transparent; --tw-ring-shadow:0 0 transparent; --tw-shadow:0 0 transparent; --tw-shadow-colored:0 0 transparent; font-family: &amp;quot;Droid Sans Mono&amp;quot;, &amp;quot;monospace&amp;quot;, monospace; font-size: 14px; text-align: left; background-color: rgb(255, 255, 255); color: rgb(0, 0, 255);&quot;&gt;float&lt;/span&gt;&lt;span style=&quot;border-color: var(--border-color); --tw-border-spacing-x:0; --tw-border-spacing-y:0; --tw-translate-x:0; --tw-translate-y:0; --tw-rotate:0; --tw-skew-x:0; --tw-skew-y:0; --tw-scale-x:1; --tw-scale-y:1; --tw-scroll-snap-strictness:proximity; --tw-ring-offset-width:0px; --tw-ring-offset-color:#fff; --tw-ring-color:rgba(59,130,246,0.5); --tw-ring-offset-shadow:0 0 transparent; --tw-ring-shadow:0 0 transparent; --tw-shadow:0 0 transparent; --tw-shadow-colored:0 0 transparent; color: rgb(59, 59, 59); font-family: &amp;quot;Droid Sans Mono&amp;quot;, &amp;quot;monospace&amp;quot;, monospace; font-size: 14px; text-align: left; background-color: rgb(255, 255, 255);&quot;&gt;&amp;nbsp;&lt;/span&gt;&lt;span style=&quot;border-color: var(--border-color); --tw-border-spacing-x:0; --tw-border-spacing-y:0; --tw-translate-x:0; --tw-translate-y:0; --tw-rotate:0; --tw-skew-x:0; --tw-skew-y:0; --tw-scale-x:1; --tw-scale-y:1; --tw-scroll-snap-strictness:proximity; --tw-ring-offset-width:0px; --tw-ring-offset-color:#fff; --tw-ring-color:rgba(59,130,246,0.5); --tw-ring-offset-shadow:0 0 transparent; --tw-ring-shadow:0 0 transparent; --tw-shadow:0 0 transparent; --tw-shadow-colored:0 0 transparent; font-family: &amp;quot;Droid Sans Mono&amp;quot;, &amp;quot;monospace&amp;quot;, monospace; font-size: 14px; text-align: left; background-color: rgb(255, 255, 255); color: rgb(0, 16, 128);&quot;&gt;T123&lt;/span&gt;&lt;span style=&quot;border-color: var(--border-color); --tw-border-spacing-x:0; --tw-border-spacing-y:0; --tw-translate-x:0; --tw-translate-y:0; --tw-rotate:0; --tw-skew-x:0; --tw-skew-y:0; --tw-scale-x:1; --tw-scale-y:1; --tw-scroll-snap-strictness:proximity; --tw-ring-offset-width:0px; --tw-ring-offset-color:#fff; --tw-ring-color:rgba(59,130,246,0.5); --tw-ring-offset-shadow:0 0 transparent; --tw-ring-shadow:0 0 transparent; --tw-shadow:0 0 transparent; --tw-shadow-colored:0 0 transparent; color: rgb(59, 59, 59); font-family: &amp;quot;Droid Sans Mono&amp;quot;, &amp;quot;monospace&amp;quot;, monospace; font-size: 14px; text-align: left; background-color: rgb(255, 255, 255);&quot;&gt;)&lt;/span&gt;" style="rounded=0;whiteSpace=wrap;html=1;" vertex="1" parent="WIyWlLk6GJQsqaUBKTNV-1">
          <mxGeometry x="565" y="490" width="630" height="60" as="geometry" />
        </mxCell>
        <mxCell id="zLF4Rb-D75C30-sHsNMi-7" value="" style="edgeStyle=orthogonalEdgeStyle;rounded=0;orthogonalLoop=1;jettySize=auto;html=1;" edge="1" parent="WIyWlLk6GJQsqaUBKTNV-1" source="zLF4Rb-D75C30-sHsNMi-6" target="zLF4Rb-D75C30-sHsNMi-4">
          <mxGeometry relative="1" as="geometry" />
        </mxCell>
        <mxCell id="zLF4Rb-D75C30-sHsNMi-6" value="&lt;div style=&quot;color: rgb(59, 59, 59); background-color: rgb(255, 255, 255); font-family: &amp;quot;Droid Sans Mono&amp;quot;, &amp;quot;monospace&amp;quot;, monospace; font-size: 14px; line-height: 19px;&quot;&gt;float &lt;span style=&quot;color: #267f99;&quot;&gt;VelocitySmoothing&lt;/span&gt;::&lt;span style=&quot;color: #795e26;&quot;&gt;computeT1&lt;/span&gt;(&lt;span style=&quot;color: #0000ff;&quot;&gt;float&lt;/span&gt; &lt;span style=&quot;color: #001080;&quot;&gt;T123&lt;/span&gt;, &lt;span style=&quot;color: #0000ff;&quot;&gt;float&lt;/span&gt; &lt;span style=&quot;color: #001080;&quot;&gt;a0&lt;/span&gt;, &lt;span style=&quot;color: #0000ff;&quot;&gt;float&lt;/span&gt; &lt;span style=&quot;color: #001080;&quot;&gt;v3&lt;/span&gt;, &lt;span style=&quot;color: #0000ff;&quot;&gt;float&lt;/span&gt; &lt;span style=&quot;color: #001080;&quot;&gt;j_max&lt;/span&gt;, &lt;span style=&quot;color: #0000ff;&quot;&gt;float&lt;/span&gt; &lt;span style=&quot;color: #001080;&quot;&gt;a_max&lt;/span&gt;)&lt;/div&gt;&lt;div style=&quot;color: rgb(59, 59, 59); background-color: rgb(255, 255, 255); font-family: &amp;quot;Droid Sans Mono&amp;quot;, &amp;quot;monospace&amp;quot;, monospace; font-size: 14px; line-height: 19px;&quot;&gt;&lt;div style=&quot;line-height: 19px;&quot;&gt;float &lt;span style=&quot;color: #267f99;&quot;&gt;VelocitySmoothing&lt;/span&gt;::&lt;span style=&quot;color: #795e26;&quot;&gt;computeT2&lt;/span&gt;(&lt;span style=&quot;color: #0000ff;&quot;&gt;float&lt;/span&gt; &lt;span style=&quot;color: #001080;&quot;&gt;T123&lt;/span&gt;, &lt;span style=&quot;color: #0000ff;&quot;&gt;float&lt;/span&gt; &lt;span style=&quot;color: #001080;&quot;&gt;T1&lt;/span&gt;, &lt;span style=&quot;color: #0000ff;&quot;&gt;float&lt;/span&gt; &lt;span style=&quot;color: #001080;&quot;&gt;T3&lt;/span&gt;)&lt;/div&gt;&lt;/div&gt;&lt;div style=&quot;color: rgb(59, 59, 59); background-color: rgb(255, 255, 255); font-family: &amp;quot;Droid Sans Mono&amp;quot;, &amp;quot;monospace&amp;quot;, monospace; font-size: 14px; line-height: 19px;&quot;&gt;&lt;div style=&quot;line-height: 19px;&quot;&gt;float &lt;span style=&quot;color: #267f99;&quot;&gt;VelocitySmoothing&lt;/span&gt;::&lt;span style=&quot;color: #795e26;&quot;&gt;computeT3&lt;/span&gt;(&lt;span style=&quot;color: #0000ff;&quot;&gt;float&lt;/span&gt; &lt;span style=&quot;color: #001080;&quot;&gt;T1&lt;/span&gt;, &lt;span style=&quot;color: #0000ff;&quot;&gt;float&lt;/span&gt; &lt;span style=&quot;color: #001080;&quot;&gt;a0&lt;/span&gt;, &lt;span style=&quot;color: #0000ff;&quot;&gt;float&lt;/span&gt; &lt;span style=&quot;color: #001080;&quot;&gt;j_max&lt;/span&gt;)&lt;/div&gt;&lt;/div&gt;" style="rounded=0;whiteSpace=wrap;html=1;" vertex="1" parent="WIyWlLk6GJQsqaUBKTNV-1">
          <mxGeometry x="470" y="380" width="820" height="60" as="geometry" />
        </mxCell>
        <mxCell id="zLF4Rb-D75C30-sHsNMi-9" value="&lt;div style=&quot;color: rgb(59, 59, 59); background-color: rgb(255, 255, 255); font-family: &amp;quot;Droid Sans Mono&amp;quot;, &amp;quot;monospace&amp;quot;, monospace; font-size: 14px; line-height: 19px;&quot;&gt;void &lt;span style=&quot;color: #267f99;&quot;&gt;VelocitySmoothing&lt;/span&gt;::&lt;span style=&quot;color: #795e26;&quot;&gt;updateDurations&lt;/span&gt;(&lt;span style=&quot;color: #0000ff;&quot;&gt;float&lt;/span&gt; &lt;span style=&quot;color: #001080;&quot;&gt;vel_setpoint&lt;/span&gt;)&lt;/div&gt;" style="rounded=0;whiteSpace=wrap;html=1;" vertex="1" parent="WIyWlLk6GJQsqaUBKTNV-1">
          <mxGeometry x="-1690" y="740" width="560" height="60" as="geometry" />
        </mxCell>
        <mxCell id="zLF4Rb-D75C30-sHsNMi-11" value="" style="edgeStyle=orthogonalEdgeStyle;rounded=0;orthogonalLoop=1;jettySize=auto;html=1;" edge="1" parent="WIyWlLk6GJQsqaUBKTNV-1" source="zLF4Rb-D75C30-sHsNMi-10" target="zLF4Rb-D75C30-sHsNMi-9">
          <mxGeometry relative="1" as="geometry">
            <Array as="points">
              <mxPoint x="-1755" y="650" />
              <mxPoint x="-1410" y="650" />
            </Array>
          </mxGeometry>
        </mxCell>
        <mxCell id="zLF4Rb-D75C30-sHsNMi-10" value="&lt;div style=&quot;color: rgb(59, 59, 59); background-color: rgb(255, 255, 255); font-family: &amp;quot;Droid Sans Mono&amp;quot;, &amp;quot;monospace&amp;quot;, monospace; font-size: 14px; line-height: 19px;&quot;&gt;int &lt;span style=&quot;color: #267f99;&quot;&gt;VelocitySmoothing&lt;/span&gt;::&lt;span style=&quot;color: #795e26;&quot;&gt;computeDirection&lt;/span&gt;()&lt;/div&gt;" style="rounded=0;whiteSpace=wrap;html=1;" vertex="1" parent="WIyWlLk6GJQsqaUBKTNV-1">
          <mxGeometry x="-1950" y="490" width="390" height="60" as="geometry" />
        </mxCell>
        <mxCell id="zLF4Rb-D75C30-sHsNMi-15" style="edgeStyle=orthogonalEdgeStyle;rounded=0;orthogonalLoop=1;jettySize=auto;html=1;" edge="1" parent="WIyWlLk6GJQsqaUBKTNV-1" source="zLF4Rb-D75C30-sHsNMi-12" target="zLF4Rb-D75C30-sHsNMi-9">
          <mxGeometry relative="1" as="geometry">
            <Array as="points">
              <mxPoint x="-1080" y="650" />
              <mxPoint x="-1410" y="650" />
            </Array>
          </mxGeometry>
        </mxCell>
        <mxCell id="zLF4Rb-D75C30-sHsNMi-12" value="&lt;div style=&quot;color: rgb(59, 59, 59); background-color: rgb(255, 255, 255); font-family: &amp;quot;Droid Sans Mono&amp;quot;, &amp;quot;monospace&amp;quot;, monospace; font-size: 14px; line-height: 19px;&quot;&gt;void &lt;span style=&quot;color: #267f99;&quot;&gt;VelocitySmoothing&lt;/span&gt;::&lt;span style=&quot;color: #795e26;&quot;&gt;updateDurationsMinimizeTotalTime&lt;/span&gt;()&lt;/div&gt;" style="rounded=0;whiteSpace=wrap;html=1;" vertex="1" parent="WIyWlLk6GJQsqaUBKTNV-1">
          <mxGeometry x="-1400" y="500" width="670" height="60" as="geometry" />
        </mxCell>
        <mxCell id="zLF4Rb-D75C30-sHsNMi-14" value="_T1;_T2;_T3" style="shape=cylinder3;whiteSpace=wrap;html=1;boundedLbl=1;backgroundOutline=1;size=15;" vertex="1" parent="WIyWlLk6GJQsqaUBKTNV-1">
          <mxGeometry x="-960" y="730" width="150" height="80" as="geometry" />
        </mxCell>
        <mxCell id="zLF4Rb-D75C30-sHsNMi-16" value="_T1;_T2;_T3" style="shape=cylinder3;whiteSpace=wrap;html=1;boundedLbl=1;backgroundOutline=1;size=15;" vertex="1" parent="WIyWlLk6GJQsqaUBKTNV-1">
          <mxGeometry x="1320" y="480" width="220" height="80" as="geometry" />
        </mxCell>
      </root>
    </mxGraphModel>
  </diagram>
</mxfile>
